<svg xmlns="http://www.w3.org/2000/svg" width="17" height="21" viewBox="0 0 17 21">
    <g fill="none" fill-rule="evenodd">
        <path fill="#FFF" fill-opacity="0" d="M-9-7h35v35H-9z"/>
        <path fill="#BEA241" fill-rule="nonzero" d="M2.066 16.631a6.128 6.128 0 0 1 10.331-4.455l.84-.888a7.354 7.354 0 0 0-2.451-1.532 4.902 4.902 0 1 0-5.185 0A7.354 7.354 0 0 0 .84 16.63v3.064c0 .339.274.613.613.613h7.966v-1.226H2.066v-2.45zm2.45-11.03a3.677 3.677 0 1 1 7.354 0 3.677 3.677 0 0 1-7.353 0zm9.193 10.417h2.451v1.226H13.71v2.451h-1.226v-2.451h-2.451v-1.226h2.451v-2.45h1.226v2.45z"/>
    </g>
</svg>
