<svg xmlns="http://www.w3.org/2000/svg" width="23" height="21" viewBox="0 0 23 21">
    <g fill="none" fill-rule="evenodd">
        <path fill="none" d="M-6-7h35v35H-6z"/>
        <path fill="#BEA241" fill-rule="nonzero" stroke="#BEA241" stroke-width=".4" d="M20.41.698H2.59C1.604.698.806 1.496.806 2.48V14.6c0 .984.798 1.782 1.782 1.782h6.416a3.771 3.771 0 0 1-.574 1.782h-4.06a1.07 1.07 0 1 0 0 2.139h14.257a1.07 1.07 0 0 0 0-2.139H14.58a3.771 3.771 0 0 1-.584-1.782h6.416c.984 0 1.782-.798 1.782-1.782V2.48c0-.984-.798-1.782-1.782-1.782zM1.52 2.48c0-.59.479-1.069 1.07-1.069h17.82c.591 0 1.07.479 1.07 1.07v9.623H1.52V2.48zm17.465 16.752c0 .197-.16.357-.357.357H4.372a.356.356 0 1 1 0-.713h14.256c.197 0 .357.16.357.356zm-5.236-1.069H9.251a4.847 4.847 0 0 0 .467-1.782h3.564c.04.618.199 1.223.467 1.782zm7.73-3.564c0 .59-.478 1.07-1.068 1.07H2.589a1.07 1.07 0 0 1-1.069-1.07v-1.782h19.96v1.782z"/>
    </g>
</svg>
