<svg xmlns="http://www.w3.org/2000/svg" width="208" height="208" viewBox="0 0 208 208">
    <path fill="#BEA241" fill-rule="nonzero" d="M104 208a1 1 0 1 1 0-2c3.32 0 6.62-.159 9.892-.473a1 1 0 1 1 .192 1.99c-3.337.321-6.7.483-10.084.483zm20.08-1.937a1 1 0 0 1-.384-1.963 101.28 101.28 0 0 0 9.611-2.373 1 1 0 0 1 .574 1.916 103.28 103.28 0 0 1-9.801 2.42zm19.337-5.793a1 1 0 1 1-.758-1.85 101.507 101.507 0 0 0 8.97-4.2 1 1 0 0 1 .935 1.768 103.507 103.507 0 0 1-9.147 4.282zm17.84-9.437a1 1 0 1 1-1.102-1.669 102.35 102.35 0 0 0 7.987-5.851 1 1 0 1 1 1.259 1.554 104.35 104.35 0 0 1-8.144 5.966zm15.684-12.7a1 1 0 1 1-1.403-1.426 102.62 102.62 0 0 0 6.715-7.278 1 1 0 0 1 1.534 1.283 104.62 104.62 0 0 1-6.846 7.42zm12.937-15.455a1 1 0 1 1-1.65-1.13 102.017 102.017 0 0 0 5.19-8.432 1 1 0 1 1 1.752.964c-1.624 2.95-3.39 5.82-5.292 8.598zm9.737-17.7a1 1 0 0 1-1.837-.789 101.25 101.25 0 0 0 3.455-9.28 1 1 0 0 1 1.906.606 103.25 103.25 0 0 1-3.524 9.463zm6.118-19.282a1 1 0 1 1-1.956-.415 101.747 101.747 0 0 0 1.581-9.775 1 1 0 1 1 1.988.223 103.747 103.747 0 0 1-1.613 9.967zm2.254-20.022a1 1 0 0 1-2-.032 104.076 104.076 0 0 0-.316-9.9 1 1 0 1 1 1.993-.16 105.408 105.408 0 0 1 .323 10.092zm-1.618-20.118a1 1 0 0 1-1.968.353 101.338 101.338 0 0 0-2.219-9.651 1 1 0 1 1 1.925-.543 103.338 103.338 0 0 1 2.262 9.841zm-5.483-19.436a1 1 0 0 1-1.863.728 101.445 101.445 0 0 0-4.054-9.033 1 1 0 0 1 1.783-.907c1.526 3 2.906 6.074 4.134 9.212zm-9.142-17.974a1 1 0 1 1-1.686 1.076 102.29 102.29 0 0 0-5.724-8.082 1 1 0 0 1 1.574-1.234 104.29 104.29 0 0 1 5.836 8.24zM179.28 32.243a1 1 0 0 1-1.448 1.38c-2.279-2.39-4.672-4.67-7.17-6.83a1 1 0 1 1 1.307-1.512 104.634 104.634 0 0 1 7.31 6.962zm-15.221-13.16a1 1 0 1 1-1.157 1.632 102.09 102.09 0 0 0-8.348-5.327 1 1 0 0 1 .992-1.736 104.09 104.09 0 0 1 8.513 5.431zM146.517 9.06a1 1 0 0 1-.819 1.825 101.287 101.287 0 0 0-9.222-3.606 1 1 0 0 1 .636-1.896c3.196 1.072 6.334 2.3 9.405 3.677zm-19.183-6.432a1 1 0 0 1-.447 1.95 101.618 101.618 0 0 0-9.749-1.74 1 1 0 0 1 .255-1.983c3.35.43 6.667 1.023 9.94 1.773zM107.305.052a1 1 0 1 1-.062 1.999 103.9 103.9 0 0 0-9.86.16 1 1 0 1 1-.128-1.996 105.558 105.558 0 0 1 10.05-.163zM87.211 1.348a1 1 0 1 1 .32 1.974c-3.268.531-6.5 1.22-9.687 2.062a1 1 0 1 1-.511-1.933c3.25-.86 6.545-1.562 9.878-2.103zM67.687 6.516a1 1 0 1 1 .698 1.874 101.387 101.387 0 0 0-9.1 3.908 1 1 0 1 1-.878-1.797 103.387 103.387 0 0 1 9.28-3.985zM49.574 15.36a1 1 0 0 1 1.048 1.704 102.226 102.226 0 0 0-8.172 5.592 1 1 0 0 1-1.208-1.594 104.226 104.226 0 0 1 8.332-5.702zM33.451 27.587a1 1 0 0 1 1.357 1.47 102.64 102.64 0 0 0-6.943 7.064 1 1 0 1 1-1.493-1.332 104.64 104.64 0 0 1 7.079-7.202zM20.066 42.58a1 1 0 1 1 1.613 1.183 102.16 102.16 0 0 0-5.46 8.26 1 1 0 0 1-1.72-1.02 104.16 104.16 0 0 1 5.567-8.423zM9.759 59.958a1 1 0 0 1 1.811.848c-1.399 2.989-2.652 6.046-3.755 9.162A1 1 0 1 1 5.93 69.3a103.333 103.333 0 0 1 3.829-9.343zm-6.742 19.07a1 1 0 0 1 1.942.48c-.788 3.199-1.422 6.441-1.897 9.719a1 1 0 0 1-1.98-.287c.485-3.342 1.131-6.649 1.935-9.911zm-2.9 19.99a1 1 0 0 1 1.998.094 103.729 103.729 0 0 0 .004 9.868 1 1 0 0 1-1.997.096 105.72 105.72 0 0 1-.005-10.058zm.976 20.117a1 1 0 1 1 1.98-.288c.477 3.277 1.113 6.52 1.904 9.718a1 1 0 0 1-1.941.48 103.503 103.503 0 0 1-1.943-9.91zm4.849 19.6a1 1 0 1 1 1.885-.669 101.334 101.334 0 0 0 3.76 9.163 1 1 0 1 1-1.811.849 103.334 103.334 0 0 1-3.834-9.344zm8.552 18.256a1 1 0 1 1 1.72-1.02 102.16 102.16 0 0 0 5.46 8.26 1 1 0 1 1-1.614 1.182 104.16 104.16 0 0 1-5.566-8.422zm11.959 16.31a1 1 0 0 1 1.49-1.333 102.641 102.641 0 0 0 6.951 7.055 1 1 0 1 1-1.355 1.471 104.641 104.641 0 0 1-7.086-7.193zm14.787 13.635a1 1 0 1 1 1.208-1.594 102.226 102.226 0 0 0 8.173 5.593 1 1 0 0 1-1.048 1.703 104.226 104.226 0 0 1-8.333-5.702zm17.206 10.582a1 1 0 1 1 .877-1.797 101.385 101.385 0 0 0 9.1 3.903 1 1 0 0 1-.699 1.874 103.385 103.385 0 0 1-9.278-3.98zm18.956 7.05a1 1 0 1 1 .51-1.934c3.186.84 6.418 1.526 9.686 2.054a1 1 0 0 1-.32 1.975 103.415 103.415 0 0 1-9.876-2.096zm19.956 3.223a1 1 0 0 1 .126-1.996c2.162.137 4.335.205 6.516.205a1 1 0 1 1 0 2c-2.223 0-4.438-.07-6.642-.209z"/>
</svg>
