<svg xmlns="http://www.w3.org/2000/svg" width="18" height="19" viewBox="0 0 18 19">
    <g fill="none" fill-rule="evenodd">
        <path fill="#FFF" fill-opacity="0" d="M-9-8h35v35H-9z"/>
        <path fill="#BEA241" fill-rule="nonzero" stroke="#FAFAFA" stroke-width=".1" d="M13.355 11.425l-1.294 1.295-3.626 3.625a3.647 3.647 0 0 1-5.151 0 3.646 3.646 0 0 1 0-5.151l2.072-2.072 3.386-3.386 2.788-2.788a2.494 2.494 0 0 1 3.523 0 2.494 2.494 0 0 1 0 3.523l-3.973 3.972-1.566 1.566-2.042 2.042c-.51.51-1.337.509-1.846 0a1.308 1.308 0 0 1 0-1.847l2.96-2.96.647-.647 2.768-2.767-.863-.863L8.37 7.734l-.648.648-2.96 2.96a2.529 2.529 0 0 0 0 3.572 2.528 2.528 0 0 0 3.571 0l1.862-1.862 1.746-1.746 3.973-3.973a3.715 3.715 0 0 0 0-5.248 3.715 3.715 0 0 0-5.248 0L7.632 5.121 4.604 8.15l-2.182 2.182a4.867 4.867 0 0 0 0 6.876 4.867 4.867 0 0 0 6.876 0l3.625-3.625 1.295-1.294 2.406-2.406-.862-.863-2.407 2.406z"/>
    </g>
</svg>
