<svg xmlns="http://www.w3.org/2000/svg" width="21" height="21" viewBox="0 0 21 21">
    <g fill="none" fill-rule="evenodd">
        <path fill="#FFF" fill-opacity="0" d="M-7-7h35v35H-7z"/>
        <g fill-rule="nonzero" stroke="#BEA241" stroke-width=".7">
            <path fill="#BEA241" d="M10.34 20.182C4.907 20.182.5 15.776.5 10.34S4.906.5 10.34.5c5.436 0 9.842 4.406 9.842 9.84 0 5.436-4.406 9.842-9.841 9.842zm0-.41a9.43 9.43 0 1 0 0-18.862 9.43 9.43 0 0 0 0 18.861z"/>
            <path d="M10.34 17.311a6.97 6.97 0 1 0 0-13.94 6.97 6.97 0 0 0 0 13.94zm0-.41a6.56 6.56 0 1 0 0-13.12 6.56 6.56 0 0 0 0 13.12z"/>
            <path fill="#BEA241" d="M10.34 5.702l4.64 4.639-4.64 4.639-4.638-4.64 4.639-4.638zM6.283 10.34L10.34 14.4l4.059-4.06-4.06-4.058-4.058 4.059z"/>
        </g>
    </g>
</svg>
