<svg xmlns="http://www.w3.org/2000/svg" width="25" height="16" viewBox="0 0 25 16">
    <g fill="none" fill-rule="evenodd" transform="translate(0 .5)">
        <path fill="#BEA241" fill-rule="nonzero" d="M21.513.271H3.377A2.686 2.686 0 0 0 .694 2.954v9.856a2.686 2.686 0 0 0 2.683 2.683h18.136a2.686 2.686 0 0 0 2.683-2.683V2.954A2.686 2.686 0 0 0 21.513.271zm-5.28 7.487l6.803-4.277v8.44l-6.803-4.163zM3.377 1.432h18.136c.576 0 1.073.325 1.331.798l-9.398 5.908c-.533.336-1.468.336-2.002 0L2.046 2.23a1.517 1.517 0 0 1 1.331-.798zm5.28 6.326L1.856 11.92v-8.44l6.803 4.277zm12.856 6.575H3.377a1.52 1.52 0 0 1-1.453-1.094l7.83-4.792 1.073.674c.453.285 1.036.428 1.618.428.583 0 1.165-.143 1.62-.428l1.071-.674 7.83 4.793a1.52 1.52 0 0 1-1.453 1.093z"/>
        <circle cx="12.23" cy="7.882" r="5" fill="#FAFAFA"/>
        <path fill="#BEA241" fill-rule="nonzero" stroke="#BEA241" stroke-width=".7" d="M12.34 4.48l3.402 3.402-3.401 3.402-3.402-3.402 3.402-3.401zM9.365 7.883l2.977 2.977 2.976-2.977-2.976-2.976-2.977 2.976z"/>
        <path fill-rule="nonzero" stroke="#BEA241" stroke-width=".7" d="M12.34 12.993a5.111 5.111 0 1 0 0-10.222 5.111 5.111 0 0 0 0 10.222zm0-.3a4.81 4.81 0 1 0 0-9.621 4.81 4.81 0 0 0 0 9.62z"/>
    </g>
</svg>
